<?xml version="1.0" encoding="iso-8859-1"?>
<!-- Generator: Adobe Illustrator 19.0.0, SVG Export Plug-In . SVG Version: 6.00 Build 0)  -->
<svg version="1.1" id="Layer_1" xmlns="http://www.w3.org/2000/svg" xmlns:xlink="http://www.w3.org/1999/xlink" x="0px" y="0px"
	 viewBox="0 0 512 512" style="enable-background:new 0 0 512 512;" xml:space="preserve">
<g>
	<g>
		<path d="M472.026,4.624C470.69,1.801,467.844,0,464.72,0H47.28c-3.124,0-5.969,1.801-7.306,4.624
			c-1.338,2.824-0.927,6.167,1.053,8.583l56.319,68.744c0.001,0.002,0.002,0.003,0.004,0.005l134.397,164.047v178.87
			c-20.099,6.217-37.501,19.968-48.006,38.621h-1.157c-13.372,0-24.253,10.88-24.253,24.253S169.212,512,182.585,512h102.638
			c4.466,0,8.084-3.618,8.084-8.084c0-4.466-3.618-8.084-8.084-8.084H182.585c-4.458,0-8.084-3.626-8.084-8.084
			c0-4.458,3.626-8.084,8.084-8.084h6.039h134.752h6.039c4.458,0,8.084,3.626,8.084,8.084c0,4.458-3.626,8.084-8.084,8.084h-19.403
			c-4.466,0-8.084,3.619-8.084,8.084c0,4.466,3.619,8.084,8.084,8.084h19.403c13.372,0,24.253-10.88,24.253-24.253
			s-10.88-24.253-24.253-24.253h-1.157c-10.505-18.654-27.906-32.404-48.006-38.621v-178.87L414.651,81.957
			c0.001-0.001,0.002-0.003,0.003-0.004l56.32-68.745C472.953,10.791,473.364,7.448,472.026,4.624z M308.93,463.495H203.069
			c10.901-14.14,27.219-23.509,45.052-25.665c0.057-0.006,0.113-0.016,0.17-0.023c0.916-0.108,1.841-0.177,2.764-0.246
			c0.411-0.03,0.819-0.077,1.231-0.099c0.416-0.024,0.835-0.022,1.251-0.037c1.641-0.059,3.282-0.059,4.923,0
			c0.417,0.015,0.836,0.013,1.251,0.037c0.411,0.023,0.82,0.069,1.231,0.099c0.924,0.07,1.848,0.138,2.764,0.246
			c0.057,0.006,0.113,0.016,0.17,0.023C281.711,439.985,298.03,449.355,308.93,463.495z M247.916,421.574V251.199h16.168v170.375
			c-0.378-0.037-0.76-0.052-1.139-0.083c-0.687-0.058-1.375-0.109-2.065-0.15c-0.445-0.026-0.89-0.054-1.336-0.073
			c-1.178-0.052-2.358-0.085-3.544-0.085c-1.186,0-2.366,0.035-3.544,0.085c-0.446,0.019-0.89,0.046-1.336,0.073
			c-0.69,0.041-1.379,0.092-2.065,0.15C248.676,421.523,248.294,421.538,247.916,421.574z M404.568,68.749h-207.73
			c-4.466,0-8.084,3.619-8.084,8.084s3.618,8.084,8.084,8.084h194.483L268.341,235.031h-24.682L120.678,84.918h51.91
			c4.466,0,8.084-3.619,8.084-8.084s-3.619-8.084-8.084-8.084h-65.157L64.354,16.168h383.293L404.568,68.749z"/>
	</g>
</g>
</svg>
